PathFileType	4	(X/Y/Z)	C:/Users/opensim2020/Desktop/walking_exp_matlab/subject06_walking14_straight_03.trc																																																																																																																																					
DataRate	CameraRate	NumFrames	NumMarkers	Units	OrigDataRate	OrigDataStartFrame	OrigNumFrames																																																																																																																																	
100	100	8	45	mm	100	2237	233																																																																																																																																	
Frame#	Time	LFHD			RFHD			LBHD			RBHD			C7			T10			CLAV			STRN			RBAK			LSHO			LUPA			LELB			LFRM			LWRA			LWRB			LFIN			RSHO			RUPA			RELB			RFRM			RWRA			RWRB			RFIN			LASI			RASI			LPSI			RPSI			LTHI			LKNE			LTIB			LANK			LHEE			LTOE			RTHI			RKNE			RTIB			RANK			RHEE			RTOE			*39			*40			*41			*42			*43			*44		
		X1	Y1	Z1	X2	Y2	Z2	X3	Y3	Z3	X4	Y4	Z4	X5	Y5	Z5	X6	Y6	Z6	X7	Y7	Z7	X8	Y8	Z8	X9	Y9	Z9	X10	Y10	Z10	X11	Y11	Z11	X12	Y12	Z12	X13	Y13	Z13	X14	Y14	Z14	X15	Y15	Z15	X16	Y16	Z16	X17	Y17	Z17	X18	Y18	Z18	X19	Y19	Z19	X20	Y20	Z20	X21	Y21	Z21	X22	Y22	Z22	X23	Y23	Z23	X24	Y24	Z24	X25	Y25	Z25	X26	Y26	Z26	X27	Y27	Z27	X28	Y28	Z28	X29	Y29	Z29	X30	Y30	Z30	X31	Y31	Z31	X32	Y32	Z32	X33	Y33	Z33	X34	Y34	Z34	X35	Y35	Z35	X36	Y36	Z36	X37	Y37	Z37	X38	Y38	Z38	X39	Y39	Z39	X40	Y40	Z40	X41	Y41	Z41	X42	Y42	Z42	X43	Y43	Z43	X44	Y44	Z44	X45	Y45	Z45
																																																																																																																																								
30	0.29	-667.33691	1655.62207	1325.55237	-670.11102	1646.35925	1457.12878	-801.34442	1602.02576	1323.17822	-802.37299	1598.22839	1452.69897	-805.31714	1447.65637	1377.30823	-858.69147	1122.11499	1391.95239	-699.44141	1364.93994	1388.32776	-670.01361	1188.15454	1385.77649	-891.0282	1284.18518	1449.47083	-739.45233	1399.80005	1222.17859	-709.9231	1201.83411	1146.21667	-688.73175	1090.96802	1130.04333	-600.37372	970.961	1104.6814	-485.22803	908.95874	1137.94617	-537.3407	869.19031	1111.24353	-459.59396	825.01868	1101.30176	-753.9975	1401.43335	1544.95264	-841.71838	1220.3772	1628.91504	-864.22107	1098.61707	1638.61072	-885.63586	979.44727	1653.65295	-872.01526	829.25317	1620.67163	-923.68951	846.03278	1660.35364	-914.1167	761.58826	1658.63037	-682.64807	952.59363	1293.09009	-690.0177	965.41205	1513.59192	-840.79205	986.56104	1320.22131	-840.35828	987.44781	1488.60657	-778.07275	646.40729	1242.52808	-807.41956	483.91309	1264.30579	-893.20618	239.06169	1270.98474	-931.52271	71.63879	1320.66687	-975.20795	61.07102	1365.29761	-790.73053	39.20757	1319.20935	-663.94025	643.49323	1585.83301	-608.00549	530.3891	1563.97449	-624.91949	268.60025	1561.63806	-615.8468	81.94892	1522.17908	-645.36755	56.92515	1470.55286	-466.00143	48.25949	1546.92322	-768.6405	1695.6499	1381.99121	NaN	NaN	NaN	NaN	NaN	NaN	NaN	NaN	NaN	NaN	NaN	NaN	NaN	NaN	NaN
31	0.3	-657.84515	1654.29846	1326.60889	-660.87402	1644.87634	1458.14233	-791.88788	1600.66748	1323.95276	-793.13971	1596.73572	1453.45972	-796.18347	1446.53149	1377.94849	-849.43359	1120.66882	1392.19653	-690.05872	1363.55383	1389.14221	-660.66681	1186.72266	1386.33411	-881.82916	1282.67969	1449.36194	-729.79828	1398.59998	1222.87927	-698.74707	1201.0321	1146.99255	-676.44092	1090.54492	1130.6405	-585.08112	972.75568	1105.39966	-468.31894	914.37524	1138.41846	-519.17902	872.88654	1112.18811	-440.16867	831.3418	1101.68054	-745.20782	1399.87378	1545.61646	-834.42328	1219.30603	1628.86401	-857.58044	1097.63135	1638.57349	-880.039	978.69391	1653.72986	-867.72198	828.25391	1621.28406	-919.38184	845.65582	1660.56372	-910.74298	761.16547	1659.18982	-673.61298	951.08997	1293.48767	-680.71173	963.92139	1513.87952	-831.742	985.13531	1320.74792	-830.94775	986.04718	1489.0907	-770.73022	645.13715	1243.09631	-801.77936	482.97754	1264.75342	-890.7594	239.06042	1271.09534	-931.08563	72.03693	1320.65869	-974.86548	61.78273	1365.3573	-790.61346	39.15271	1319.26025	-657.12164	640.89478	1586.04089	-600.19958	528.27728	1564.02271	-605.12073	266.61185	1562.52625	-586.81525	80.50948	1523.5813	-615.43427	54.55689	1472.23425	-435.14252	51.23258	1546.27258	-759.26788	1694.20508	1382.92676	NaN	NaN	NaN	NaN	NaN	NaN	NaN	NaN	NaN	NaN	NaN	NaN	NaN	NaN	NaN
32	0.31	-648.33289	1652.91003	1327.66028	-651.56573	1643.32849	1459.22278	-782.37097	1599.20227	1324.79077	-783.82684	1595.16516	1454.30298	-787.02783	1445.00513	1378.59351	-840.05005	1119.13245	1392.49036	-680.51532	1361.99731	1389.95679	-651.20831	1185.22803	1387.02576	-872.50513	1281.06299	1449.45288	-720.0694	1397.35205	1223.59338	-687.57599	1200.09509	1147.84314	-664.23767	1089.85425	1131.53015	-570.33466	974.47314	1106.17407	-451.96185	919.65509	1139.1239	-501.34164	876.44183	1112.92346	-421.22879	837.5506	1102.2561	-736.38049	1398.23706	1546.32837	-826.81	1218.10449	1628.91577	-850.64587	1096.6073	1638.66479	-874.15637	977.84644	1653.97876	-862.89105	827.185	1621.94128	-914.7005	845.2085	1660.91772	-906.87695	760.58942	1659.8042	-664.53857	949.46704	1293.77527	-671.27264	962.43073	1514.17859	-822.67334	983.65369	1321.20581	-820.89197	984.45587	1489.62122	-763.3642	643.91187	1243.52209	-796.21124	482.03046	1265.06677	-888.25006	239.1355	1271.31519	-930.67743	72.49747	1320.5719	-974.81708	62.5933	1365.08594	-790.51697	39.10264	1319.22766	-650.06183	638.40857	1586.27136	-592.40796	525.98279	1563.94324	-586.22772	264.93735	1563.13	-559.02673	79.69941	1524.76782	-586.77789	52.6823	1473.7699	-405.62811	55.95324	1545.36108	-749.83972	1692.72656	1383.86047	NaN	NaN	NaN	NaN	NaN	NaN	NaN	NaN	NaN	NaN	NaN	NaN	NaN	NaN	NaN
33	0.32	-638.81268	1651.39819	1328.78162	-642.21497	1641.7644	1460.32446	-772.78418	1597.65552	1325.6864	-774.49243	1593.55493	1455.1908	-776.93018	1443.23865	1379.21008	-830.54486	1117.5249	1392.90662	-670.98187	1360.47351	1390.86829	-641.54291	1183.67786	1387.73499	-863.24078	1279.42578	1449.65393	-710.18329	1395.9928	1224.45313	-676.45612	1199.08533	1148.73083	-652.28241	1089.12036	1132.37952	-555.92706	975.96075	1106.95996	-435.98853	924.61816	1139.98828	-484.10834	880.12109	1113.91174	-402.79443	843.67126	1102.92139	-727.3822	1396.49988	1547.12549	-818.89374	1216.77502	1629.10193	-843.40363	1095.47803	1638.91418	-867.83868	976.95288	1654.35461	-857.60992	826.008	1622.78296	-909.52283	844.64813	1661.40564	-902.50977	759.90179	1660.52429	-655.33099	947.86346	1294.15454	-661.6568	960.92584	1514.50073	-813.54333	982.04846	1321.79761	-811.22076	982.75317	1490.276	-756.16876	642.69763	1243.76953	-790.52789	481.08432	1265.36218	-885.41565	239.30818	1271.62537	-930.11029	73.00964	1320.25916	-974.61328	63.5108	1364.79517	-790.45673	39.04784	1319.16675	-642.68445	635.94763	1586.73914	-584.37799	523.56299	1564.0271	-568.22821	263.56412	1563.61926	-532.72815	79.38589	1525.68201	-559.32819	50.72614	1475.02576	-378.01691	62.69822	1544.77539	-740.46399	1691.16357	1384.89612	NaN	NaN	NaN	NaN	NaN	NaN	NaN	NaN	NaN	NaN	NaN	NaN	NaN	NaN	NaN
34	0.33	-629.22388	1649.84912	1329.96167	-632.86603	1640.18164	1461.55676	-763.14917	1596.03137	1326.64697	-765.06451	1591.88794	1456.2019	-767.21667	1441.6853	1380.08435	-820.9599	1115.87305	1393.52075	-661.25751	1358.85925	1391.89111	-631.88464	1182.05505	1388.44446	-853.47961	1277.58899	1449.99231	-700.2785	1394.5144	1225.39746	-665.38452	1197.91699	1149.63733	-640.42651	1088.21973	1133.27356	-541.73584	977.32574	1107.75525	-420.50052	929.39746	1141.17529	-467.44461	883.62128	1114.88855	-384.83945	849.56299	1103.97351	-718.23102	1394.71814	1548.05823	-810.67987	1215.39551	1629.50964	-835.78534	1094.22498	1639.32117	-861.10046	975.9035	1654.9292	-851.77454	824.81635	1623.90466	-903.76025	843.9129	1662.0863	-897.47888	759.08362	1661.39795	-645.88458	946.20996	1294.6532	-651.72693	959.20886	1514.72595	-804.33667	980.27197	1322.41492	-802.07379	981.1109	1491.03674	-749.00897	641.51941	1243.87769	-784.70642	480.09909	1265.54346	-882.70862	239.3506	1271.59558	-929.784	73.69127	1320.23389	-974.29053	64.64224	1364.41711	-790.38055	38.9749	1319.15637	-634.82556	633.47241	1587.60535	-575.95288	521.27368	1564.26379	-551.12067	262.3371	1564.01563	-507.70068	79.60137	1526.28687	-533.07251	49.17668	1475.97742	-352.2674	70.27571	1544.20251	-730.98901	1689.55554	1385.94971	NaN	NaN	NaN	NaN	NaN	NaN	NaN	NaN	NaN	NaN	NaN	NaN	NaN	NaN	NaN
35	0.34	-619.68799	1648.32996	1331.19202	-623.38092	1638.63831	1462.79614	-753.55225	1594.3905	1327.76929	-755.55981	1590.22583	1457.27551	-757.75177	1440.06311	1381.15186	-811.30273	1114.21423	1394.16931	-651.35254	1357.35168	1393.02405	-621.98993	1180.48413	1389.25647	-843.85834	1275.80005	1450.54822	-690.33508	1393.04578	1226.38928	-654.48859	1196.66309	1150.64246	-628.77045	1087.17883	1134.32349	-527.89404	978.53979	1108.67822	-405.43524	933.80475	1142.4834	-450.95483	886.72687	1115.94971	-367.15305	855.23346	1105.10754	-708.84399	1392.90833	1549.073	-802.11914	1213.86877	1630.06006	-827.81854	1092.86621	1639.89893	-853.96698	974.71808	1655.59973	-845.36725	823.43945	1625.07385	-897.47534	843.07825	1662.85059	-891.83179	758.17761	1662.43237	-637.21484	944.50531	1294.4165	-641.58948	957.58234	1514.96899	-795.00397	978.48279	1323.25452	-791.34668	979.34717	1491.93958	-741.82928	640.34668	1243.97327	-778.6344	479.03189	1265.72681	-879.53662	239.48192	1271.67603	-929.40497	74.59187	1319.6676	-974.01965	65.98417	1363.75891	-790.40552	38.81432	1319.20544	-626.13422	631.25421	1588.80261	-567.12	519.07684	1564.57983	-534.80927	261.36078	1564.25623	-484.31293	80.24844	1526.7821	-508.51416	48.36855	1476.69727	-328.29245	77.184	1543.72266	-721.50275	1687.91687	1387.07129	NaN	NaN	NaN	NaN	NaN	NaN	NaN	NaN	NaN	NaN	NaN	NaN	NaN	NaN	NaN
36	0.35	-610.0639	1646.87646	1332.50122	-613.90039	1637.21069	1464.06689	-743.85156	1592.71643	1328.96484	-745.97729	1588.58142	1458.44446	-747.74908	1438.4303	1382.229	-801.50482	1112.48315	1394.93457	-641.5589	1355.71655	1394.09314	-612.02509	1178.97388	1390.09155	-833.99463	1273.86365	1451.17078	-680.31067	1391.61731	1227.43176	-643.74762	1195.33032	1151.61499	-617.24249	1086.05176	1135.2522	-514.39154	979.69769	1109.75903	-390.9147	937.86047	1143.93652	-435.3172	889.87878	1117.11072	-350.80023	860.4433	1106.62585	-699.25806	1391.0686	1550.23657	-793.28052	1212.32568	1630.71667	-819.53131	1091.47888	1640.64087	-846.34875	973.52094	1656.44153	-838.39117	822.06152	1626.33057	-890.64581	842.11011	1663.75171	-885.59601	757.18658	1663.57227	-627.9859	942.79456	1294.57959	-631.29279	956.05951	1515.0343	-785.81641	976.76434	1324.24841	-781.23889	977.66797	1493.01355	-734.60815	639.17255	1243.93262	-772.25458	477.94461	1265.91699	-876.37219	239.71098	1271.49084	-928.80072	75.6182	1318.98364	-973.85223	67.63967	1362.9032	-790.39874	38.80037	1319.07349	-616.54004	629.38885	1590.224	-557.89374	516.94073	1565.00684	-519.20679	260.56482	1564.43787	-462.75604	80.94845	1526.97925	-485.80637	48.19334	1476.9292	-306.29645	82.81427	1543.20776	-712.02765	1686.28967	1388.27307	NaN	NaN	NaN	NaN	NaN	NaN	NaN	NaN	NaN	NaN	NaN	NaN	NaN	NaN	NaN
37	0.36	-600.43042	1645.56799	1333.80103	-604.32245	1635.90186	1465.45593	-734.06445	1591.06946	1330.20349	-736.30029	1586.99988	1459.76953	-738.32349	1437.03223	1383.42175	-791.43518	1110.8457	1395.80188	-631.44031	1354.36621	1395.32788	-601.94464	1177.51404	1390.9425	-823.89301	1271.98413	1452.03992	-670.16565	1390.26843	1228.54834	-633.02991	1193.98755	1152.65698	-605.79102	1084.97766	1136.24841	-501.0481	980.67535	1110.90515	-376.87573	941.54327	1145.5813	-420.04474	892.64923	1118.50134	-334.79596	865.26245	1108.07446	-689.44196	1389.25732	1551.45166	-784.10815	1210.729	1631.52808	-810.87744	1090.05249	1641.5625	-838.20752	972.26788	1657.44043	-830.90411	820.65594	1627.78125	-883.18958	841.03436	1664.78894	-878.6004	756.11438	1664.76648	-618.86304	941.13159	1294.85876	-620.94049	954.54272	1515.21423	-776.60474	975.10712	1325.40112	-771.67114	976.31757	1494.30908	-726.8233	637.93921	1244.46765	-765.56403	476.82703	1266.11511	-873.22955	240.03334	1271.06824	-928.2478	76.83793	1318.16785	-973.53705	69.38704	1361.98157	-790.32898	38.73018	1318.90942	-605.84088	628.01233	1592.099	-548.32019	514.86884	1565.57263	-504.31351	259.80737	1564.76843	-443.38269	81.56487	1527.0813	-465.70041	48.37374	1476.93298	-286.63412	86.99382	1542.82312	-702.43433	1684.76257	1389.57043	NaN	NaN	NaN	NaN	NaN	NaN	NaN	NaN	NaN	NaN	NaN	NaN	NaN	NaN	NaN
